<?xml version="1.0" encoding="UTF-8"?>
<svg version="1.1" xmlns="http://www.w3.org/2000/svg" width="512" height="512">
<path d="M0 0 C1.01790619 0.00215515 2.03581238 0.0043103 3.08456421 0.00653076 C17.69363523 0.05620146 32.02575853 0.30709809 46.375 3.3125 C47.34985352 3.51117676 48.32470703 3.70985352 49.32910156 3.91455078 C98.5477554 14.2102109 141.97749696 36.64668433 178.375 71.3125 C179.273396 72.16787354 179.273396 72.16787354 180.18994141 73.04052734 C188.53310078 81.04350112 196.17845187 89.26229841 203.06445312 98.55322266 C204.39297091 100.33662413 205.74860037 102.09659516 207.109375 103.85546875 C218.05312124 118.1694946 226.78421843 133.99757748 234.375 150.3125 C234.70064941 151.00682129 235.02629883 151.70114258 235.36181641 152.41650391 C248.48898405 180.80216384 256.41788575 212.98487295 256.578125 244.32421875 C256.58513931 245.24704651 256.59215363 246.16987427 256.59938049 247.1206665 C256.61678045 250.08049458 256.62323219 253.04012266 256.625 256 C256.62601212 257.51607346 256.62601212 257.51607346 256.62704468 259.06277466 C256.61152342 273.6752457 256.29239158 287.94561612 253.375 302.3125 C253.19807617 303.21291016 253.02115234 304.11332031 252.83886719 305.04101562 C251.53990726 311.5156242 250.02880732 317.91992152 248.375 324.3125 C248.16536621 325.13250488 247.95573242 325.95250977 247.73974609 326.79736328 C234.42450797 377.71097974 201.69609191 427.67855251 159.375 459.3125 C158.25384859 460.17440416 157.13275894 461.03638867 156.01171875 461.8984375 C146.55824054 469.07800525 136.64484483 475.37012882 126.375 481.3125 C125.69775879 481.70679199 125.02051758 482.10108398 124.32275391 482.50732422 C92.71413448 500.68790125 54.98804683 512.3403959 18.4375 512.55078125 C17.76870819 512.55485678 17.09991638 512.5589323 16.41085815 512.56313133 C12.85593998 512.58391541 9.30105928 512.59823794 5.74609375 512.60766602 C2.86045618 512.61643426 -0.02468534 512.6370975 -2.91015625 512.66918945 C-25.27657525 512.91224308 -46.71920811 511.46284962 -68.3125 505.0625 C-69.33956055 504.76512939 -70.36662109 504.46775879 -71.42480469 504.16137695 C-111.8144567 492.18218751 -147.15964348 471.32840343 -177.625 442.3125 C-178.22393066 441.74225098 -178.82286133 441.17200195 -179.43994141 440.58447266 C-187.78310078 432.58149888 -195.42845187 424.36270159 -202.31445312 415.07177734 C-203.64297091 413.28837587 -204.99860037 411.52840484 -206.359375 409.76953125 C-217.30312124 395.4555054 -226.03421843 379.62742252 -233.625 363.3125 C-233.95064941 362.61817871 -234.27629883 361.92385742 -234.61181641 361.20849609 C-247.73898427 332.8228357 -255.66788481 300.64012738 -255.828125 269.30078125 C-255.83513931 268.37799881 -255.84215363 267.45521637 -255.84938049 266.50447083 C-255.86678136 263.54459696 -255.87323233 260.58492313 -255.875 257.625 C-255.87567474 256.61395203 -255.87634949 255.60290405 -255.87704468 254.56121826 C-255.86150719 239.92780863 -255.45338248 225.71000604 -252.625 211.3125 C-252.46402832 210.41692383 -252.30305664 209.52134766 -252.13720703 208.59863281 C-245.00517164 169.17718069 -228.25712996 131.87648597 -203.625 100.3125 C-202.94050781 99.41660156 -202.25601563 98.52070312 -201.55078125 97.59765625 C-189.21721107 81.76165235 -174.61408132 66.46332449 -158.625 54.3125 C-158.08472168 53.89581055 -157.54444336 53.47912109 -156.98779297 53.04980469 C-146.9927884 45.3665127 -136.53290964 38.62407032 -125.625 32.3125 C-124.94775879 31.91820801 -124.27051758 31.52391602 -123.57275391 31.11767578 C-85.96936251 9.48903884 -43.05867007 -0.16395955 0 0 Z " fill="#1F4E77" transform="translate(255.625,-0.3125)"/>
<path d="M0 0 C0.63679688 0.515625 1.27359375 1.03125 1.9296875 1.5625 C2.74179687 2.16191406 3.55390625 2.76132813 4.390625 3.37890625 C17.96699629 15.05458556 22.45156241 33.45417686 23.9296875 50.5625 C24.79129967 72.02350158 22.01140117 94.07339171 7.6171875 110.875 C1.33809365 117.51229719 -5.38230824 121.82939866 -14.0703125 124.5625 C-15.6171875 125.1503125 -15.6171875 125.1503125 -17.1953125 125.75 C-30.63148474 128.56726192 -44.6988534 126.32805662 -56.50390625 119.3515625 C-64.37055421 113.86765875 -69.68076516 107.00497295 -74.0703125 98.5625 C-74.44929687 97.86769531 -74.82828125 97.17289062 -75.21875 96.45703125 C-81.0169145 84.83890465 -81.62643785 71.41893669 -81.5078125 58.6875 C-81.50477112 57.99072144 -81.50172974 57.29394287 -81.49859619 56.5760498 C-81.3744594 37.30670899 -78.12020324 20.15433109 -64.29296875 5.75 C-63.55949219 5.028125 -62.82601562 4.30625 -62.0703125 3.5625 C-61.47089844 2.964375 -60.87148437 2.36625 -60.25390625 1.75 C-44.70346967 -12.6819597 -16.63599533 -12.29326562 0 0 Z " fill="#F7BC05" transform="translate(286.0703125,127.4375)"/>
<path d="M0 0 C1.25296875 0.00280975 1.25296875 0.00280975 2.53125 0.00567627 C4.30326311 0.01240219 6.07526123 0.02632743 7.84716797 0.046875 C10.52455877 0.07768834 13.20135662 0.08781637 15.87890625 0.09375 C48.17421437 0.2383122 48.17421437 0.2383122 58.91015625 10.53515625 C65.92881941 18.15115244 67.02692803 25.50298061 66.87890625 35.55859375 C66.20048651 43.64100182 63.07077653 49.51383311 57.5625 55.328125 C58.14257812 55.72902344 58.72265625 56.12992188 59.3203125 56.54296875 C68.09405928 62.92782408 73.76309994 70.45611961 75.5625 81.328125 C76.48103535 94.26051959 74.77070601 106.51011296 66.125 116.640625 C58.53008663 124.74935915 49.17312814 129.71027418 37.93028259 130.51699829 C34.92315269 130.59118285 31.9220869 130.60539094 28.9140625 130.59375 C27.82032318 130.59566345 26.72658386 130.5975769 25.59970093 130.59954834 C23.30197925 130.60090309 21.00424973 130.59725651 18.70654297 130.58886719 C15.17788755 130.57809566 11.6497341 130.58881842 8.12109375 130.6015625 C5.88541554 130.60024199 3.64973764 130.59768186 1.4140625 130.59375 C-0.17334244 130.59982269 -0.17334244 130.59982269 -1.79281616 130.60601807 C-3.25541367 130.59656158 -3.25541367 130.59656158 -4.74755859 130.58691406 C-5.60723236 130.58532288 -6.46690613 130.58373169 -7.35263062 130.58209229 C-9.4375 130.328125 -9.4375 130.328125 -11.4375 128.328125 C-11.69197559 126.13823795 -11.69197559 126.13823795 -11.69819641 123.36231995 C-11.70528122 122.31213684 -11.71236603 121.26195374 -11.71966553 120.1799469 C-11.71718811 119.02300827 -11.71471069 117.86606964 -11.7121582 116.67407227 C-11.7198246 114.85206802 -11.7198246 114.85206802 -11.72764587 112.99325562 C-11.73918842 109.65642046 -11.74161159 106.31983319 -11.73908257 102.98299527 C-11.73801461 100.19960073 -11.74289177 97.41622924 -11.747688 94.63283962 C-11.75879257 88.06730206 -11.75921535 81.50182171 -11.75317383 74.9362793 C-11.74713289 68.15839603 -11.75944577 61.38072029 -11.7807439 54.60287243 C-11.79834572 48.78795787 -11.80436349 42.97310944 -11.80110615 37.15816921 C-11.79929077 33.68328045 -11.80195453 30.2085397 -11.81582069 26.733675 C-11.83070081 22.85955753 -11.82144131 18.98570539 -11.80981445 15.11157227 C-11.81745819 13.95665787 -11.82510193 12.80174347 -11.83297729 11.61183167 C-11.82596298 10.55882874 -11.81894867 9.50582581 -11.8117218 8.4209137 C-11.81188954 7.50448373 -11.81205729 6.58805376 -11.81223011 5.64385319 C-11.4375 3.328125 -11.4375 3.328125 -10.148242 1.53210354 C-7.14462722 -0.58176737 -3.5402703 -0.05442881 0 0 Z " fill="#F7BC05" transform="translate(118.4375,120.671875)"/>
<path d="M0 0 C2.53309722 2.53309722 1.18555171 9.52994908 1.1875 12.9375 C1.19974609 14.06091797 1.21199219 15.18433594 1.22460938 16.34179688 C1.22654297 17.41365234 1.22847656 18.48550781 1.23046875 19.58984375 C1.23457764 20.57847412 1.23868652 21.56710449 1.24291992 22.58569336 C1 25 1 25 -1 27 C-4.17556534 27.45518222 -5.66936709 27.19125359 -8.46484375 25.57421875 C-9.28082031 24.95160156 -10.09679687 24.32898438 -10.9375 23.6875 C-21.89310076 15.68458693 -32.50562097 13.94934275 -46 15 C-51.07529422 16.11621591 -55.0995827 18.69331977 -58 23 C-58.48187933 27.04335527 -58.38983149 30.9513215 -58 35 C-57.93039062 35.74121094 -57.86078125 36.48242188 -57.7890625 37.24609375 C-57.11808819 39.21362109 -57.11808819 39.21362109 -54.8828125 40.13671875 C-51.56479056 41.13032695 -48.24242257 42.00003152 -44.875 42.8125 C-43.4529672 43.16342369 -42.03109924 43.51501582 -40.609375 43.8671875 C-38.26070744 44.44574193 -35.91145812 45.02144429 -33.56054688 45.59082031 C-5.62988117 52.39219013 -5.62988117 52.39219013 2.875 66 C7.5511965 78.46985733 6.96522914 89.63560587 2 102 C-3.67125525 113.77274365 -13.13057353 119.79654621 -25.1796875 124.1484375 C-30.20497661 125.26859397 -34.99123222 125.34140493 -40.125 125.3125 C-41.15036865 125.30758545 -42.1757373 125.3026709 -43.23217773 125.29760742 C-50.83828283 125.18020138 -57.74469913 124.3900926 -65 122 C-66.85625 121.40251953 -66.85625 121.40251953 -68.75 120.79296875 C-79.74672561 117.10508499 -79.74672561 117.10508499 -83 114 C-83.50170898 111.50390625 -83.50170898 111.50390625 -83.49609375 108.5625 C-83.49673828 107.50289063 -83.49738281 106.44328125 -83.49804688 105.3515625 C-83.47806641 104.24554688 -83.45808594 103.13953125 -83.4375 102 C-83.44458984 100.89398438 -83.45167969 99.78796875 -83.45898438 98.6484375 C-83.39478169 90.52926777 -83.39478169 90.52926777 -81.62255859 88.15332031 C-80 87 -80 87 -77.60546875 87.109375 C-74.69678407 88.10364802 -72.75634332 89.39187119 -70.3125 91.25 C-58.31227316 99.93367083 -46.88399241 103.52133537 -32 102 C-26.78116035 100.44303504 -23.16796177 98.19577038 -19.375 94.3125 C-17.48318818 89.75495335 -17.23431838 85.86289282 -18 81 C-20.24214346 76.31188185 -23.87856067 74.70041056 -28.5625 72.96484375 C-33.14002797 71.68001488 -37.76134092 70.84358418 -42.4375 70 C-56.15252278 67.51874621 -67.25862863 64.36927132 -76.375 53.125 C-83.35662703 42.88528036 -83.25498388 30.88664263 -81.56640625 18.9296875 C-79.14837279 9.34766673 -72.29499617 2.04175418 -64 -3 C-43.24098018 -14.0350579 -20.51182477 -9.0602313 0 0 Z " fill="#F7BC05" transform="translate(407,128)"/>
<path d="M0 0 C5.08471126 4.77913967 8.96850243 12.52318891 9.25198364 19.50039673 C9.25277924 20.78755585 9.25357483 22.07471497 9.25439453 23.40087891 C9.25702301 24.46714256 9.25702301 24.46714256 9.25970459 25.5549469 C9.26410502 27.90384361 9.2611921 30.25266502 9.2578125 32.6015625 C9.25848591 34.23155736 9.25945624 35.86155212 9.26071167 37.49154663 C9.26218606 40.90615801 9.2600418 44.32074322 9.25537109 47.73535156 C9.24966491 52.12167243 9.25296005 56.50793223 9.25894356 60.89425087 C9.26254843 64.25872258 9.26141109 67.62317969 9.25881577 70.98765182 C9.25814676 72.60565574 9.25897401 74.22366097 9.26129532 75.84166336 C9.26382161 78.09711498 9.25998204 80.35246607 9.25439453 82.60791016 C9.25359894 83.89347809 9.25280334 85.17904602 9.25198364 86.50357056 C9.125 89.375 9.125 89.375 8.125 90.375 C5.64722151 90.58197434 3.23142741 90.6992645 0.75 90.75 C-0.27867187 90.80607422 -0.27867187 90.80607422 -1.328125 90.86328125 C-3.3359375 90.8984375 -3.3359375 90.8984375 -6.875 90.375 C-8.8515625 87.8515625 -8.8515625 87.8515625 -9.875 85.375 C-10.40867188 85.70113281 -10.94234375 86.02726562 -11.4921875 86.36328125 C-20.36954744 91.56989893 -29.44749045 94.93912643 -39.875 93.375 C-46.69589396 91.13128488 -52.6499303 87.22941839 -56.875 81.375 C-58.49874152 78.12256653 -59.75187588 74.82890859 -60.875 71.375 C-61.205 70.385 -61.535 69.395 -61.875 68.375 C-62.67707466 57.52726892 -62.00210748 48.42718438 -55.1875 39.5625 C-45.69125543 29.44745253 -29.85922197 26.74434473 -16.6015625 26.25390625 C-14.02226264 26.25059095 -11.45245439 26.28202569 -8.875 26.375 C-9.13714874 20.39836534 -9.13714874 20.39836534 -12.25 15.4375 C-18.32362619 10.66536513 -27.45643335 11.84976136 -34.875 12.375 C-38.6789073 13.0641785 -42.22679694 14.11381682 -45.875 15.375 C-47.268468 15.77908123 -48.66404056 16.17604699 -50.0625 16.5625 C-50.990625 16.830625 -51.91875 17.09875 -52.875 17.375 C-54.875 15.375 -54.875 15.375 -55.10205078 13.49560547 C-55.09157715 12.75197754 -55.08110352 12.00834961 -55.0703125 11.2421875 C-55.06386719 10.43652344 -55.05742187 9.63085938 -55.05078125 8.80078125 C-55.03402344 7.95902344 -55.01726562 7.11726563 -55 6.25 C-54.99097656 5.40050781 -54.98195312 4.55101562 -54.97265625 3.67578125 C-54.94905647 1.57540116 -54.91318483 -0.52483444 -54.875 -2.625 C-53.16774992 -3.10801203 -51.45914026 -3.58621958 -49.75 -4.0625 C-48.79867187 -4.32933594 -47.84734375 -4.59617187 -46.8671875 -4.87109375 C-31.97083818 -8.62435148 -12.78491015 -9.49427927 0 0 Z " fill="#01B2EB" transform="translate(248.875,299.625)"/>
<path d="M0 0 C1.8871875 0.00773437 1.8871875 0.00773437 3.8125 0.015625 C5.070625 0.01046875 6.32875 0.0053125 7.625 0 C10.8125 0.265625 10.8125 0.265625 12.8125 2.265625 C13.0909729 5.27749634 13.0909729 5.27749634 13.13134766 9.19384766 C13.14139328 9.90615036 13.1514389 10.61845306 13.16178894 11.3523407 C13.19272904 13.71144793 13.20968577 16.07044115 13.2265625 18.4296875 C13.24526548 20.06351714 13.26483823 21.69733703 13.2852478 23.33114624 C13.3366671 27.63503281 13.37624018 31.93895073 13.41339111 36.24298096 C13.45336953 40.63342099 13.5044899 45.02372952 13.5546875 49.4140625 C13.65156272 58.03116031 13.73593015 66.64832297 13.8125 75.265625 C15.26182332 73.6604472 16.71041363 72.05460753 18.15869141 70.44848633 C18.96545319 69.55430496 19.77221497 68.6601236 20.60342407 67.73884583 C22.87245245 65.19850389 25.05657506 62.61025793 27.1875 59.953125 C31.06155384 55.16672808 35.01392169 50.45502192 39.00732422 45.76831055 C41.04790474 43.36933097 42.90472067 41.11164378 44.52734375 38.40234375 C47.62812399 35.50298171 49.79018465 35.74739737 53.91796875 35.82617188 C55.22701172 35.88901367 55.22701172 35.88901367 56.5625 35.953125 C57.89474609 35.98696289 57.89474609 35.98696289 59.25390625 36.02148438 C61.44182812 36.08029948 63.62629671 36.16241232 65.8125 36.265625 C66.40966797 38.12866211 66.40966797 38.12866211 66.8125 40.265625 C65.2578125 42.45703125 65.2578125 42.45703125 62.9375 44.828125 C59.5928978 48.35365622 56.41315104 51.90951243 53.375 55.703125 C49.45763751 60.54503983 45.33624519 65.15487945 41.12109375 69.73828125 C38.27548837 72.85352098 35.53445822 76.04225343 32.8125 79.265625 C34.49052592 83.12789695 37.01594858 86.25235819 39.625 89.515625 C40.34707642 90.4271936 40.34707642 90.4271936 41.08374023 91.35717773 C44.26795906 95.36483994 47.49146554 99.33995357 50.72680664 103.30639648 C52.9024718 105.97513936 55.06951178 108.65082375 57.23583984 111.32714844 C58.27775157 112.60816099 59.32487639 113.88495297 60.37744141 115.15722656 C61.82801476 116.91173402 63.25937011 118.680336 64.6875 120.453125 C65.50992188 121.45730469 66.33234375 122.46148437 67.1796875 123.49609375 C68.8125 126.265625 68.8125 126.265625 68.5703125 129.12890625 C68.32023437 129.83402344 68.07015625 130.53914062 67.8125 131.265625 C52.31482781 133.62218761 52.31482781 133.62218761 46.81396484 129.92089844 C43.02846021 126.23245803 40.14914833 121.88547348 37.28125 117.46826172 C34.99904651 114.04571519 32.40202236 110.8951687 29.8125 107.703125 C26.33579502 103.31973468 23.03992998 98.83589639 19.8125 94.265625 C16.3085813 95.4335979 15.60418811 96.10005909 13.8125 99.265625 C13.34042195 102.52129198 13.34042195 102.52129198 13.37109375 106.1484375 C13.35788589 106.80391571 13.34467804 107.45939392 13.33106995 108.13473511 C13.29030242 110.22007581 13.26853161 112.3049768 13.25 114.390625 C13.22621435 116.48328179 13.19813494 118.5755244 13.15821838 120.66793823 C13.12272958 122.56117049 13.10285734 124.45467618 13.08374023 126.34814453 C12.8125 129.265625 12.8125 129.265625 10.8125 131.265625 C7.625 131.53125 7.625 131.53125 3.8125 131.515625 C2.554375 131.52078125 1.29625 131.5259375 0 131.53125 C-3.1875 131.265625 -3.1875 131.265625 -5.1875 129.265625 C-5.43918228 127.0417099 -5.43918228 127.0417099 -5.44146729 124.21716309 C-5.44710693 123.14870651 -5.45274658 122.08024994 -5.45855713 120.97941589 C-5.45450867 119.80220474 -5.45046021 118.62499359 -5.44628906 117.41210938 C-5.4497937 116.17632645 -5.45329834 114.94054352 -5.45690918 113.66731262 C-5.46421846 110.27269149 -5.46248403 106.8783132 -5.45615101 103.48370552 C-5.45109728 99.93587027 -5.45578071 96.3880456 -5.45892334 92.84020996 C-5.46256482 86.88157278 -5.45775913 80.92298513 -5.44824219 74.96435547 C-5.43735726 68.06947723 -5.44088271 61.17471727 -5.451895 54.2798419 C-5.4609627 48.36643316 -5.46225569 42.45306007 -5.45701766 36.53964663 C-5.4538951 33.00502362 -5.45349641 29.47045625 -5.46009064 25.93583679 C-5.46692551 21.99689108 -5.45745976 18.05807849 -5.44628906 14.11914062 C-5.45033752 12.94192947 -5.45438599 11.76471832 -5.45855713 10.55183411 C-5.45291748 9.48337753 -5.44727783 8.41492096 -5.44146729 7.31408691 C-5.44071323 6.38198647 -5.43995918 5.44988602 -5.43918228 4.4895401 C-5.01024341 0.69935023 -3.64889715 0.30407476 0 0 Z " fill="#01B2EB" transform="translate(113.1875,258.734375)"/>
<path d="M0 0 C7.76812953 5.93857006 12.40192622 15.85673604 14.3359375 25.296875 C16.53788432 43.54856757 16.36413337 62.50007392 4.8984375 77.734375 C-0.95210777 83.55103681 -6.77500616 85.78993401 -14.9765625 86.046875 C-23.34656595 85.88113236 -29.11927043 83.74607155 -35.1015625 77.734375 C-45.10575514 62.52411706 -47.70019441 43.24222376 -44.41015625 25.47265625 C-41.87105017 14.96564404 -37.64824694 4.63773293 -28.1015625 -1.265625 C-18.56635565 -5.79226652 -9.08249668 -5.46975636 0 0 Z " fill="#204F76" transform="translate(272.1015625,145.265625)"/>
<path d="M0 0 C7.00412536 4.07549985 10.53067416 10.60068984 12.7355957 18.24023438 C14.25010951 25.30517745 13.93890994 32.52361512 13.90234375 39.7109375 C13.90114979 41.26509564 13.90069925 42.81925451 13.9009552 44.37341309 C13.89939971 47.61096796 13.8911762 50.84841078 13.87768555 54.0859375 C13.86058293 58.24341034 13.85687494 62.40076177 13.85763073 66.55826569 C13.85735964 69.75802781 13.85189015 72.95776321 13.84462929 76.15751648 C13.84144172 77.69178567 13.83947501 79.22605788 13.83873558 80.7603302 C13.83657936 82.89300785 13.82785429 85.0255536 13.81713867 87.15820312 C13.81332687 88.37237915 13.80951508 89.58655518 13.80558777 90.83752441 C13.671875 93.5546875 13.671875 93.5546875 12.671875 94.5546875 C10.17948931 94.68121948 7.72717059 94.73988575 5.234375 94.7421875 C4.54021484 94.75443359 3.84605469 94.76667969 3.13085938 94.77929688 C1.30966599 94.78458592 -0.5109942 94.67637957 -2.328125 94.5546875 C-5.07891886 91.80389364 -4.5850077 90.23202159 -4.59936523 86.38012695 C-4.60955185 85.08150223 -4.61973846 83.7828775 -4.63023376 82.44490051 C-4.63117476 81.74838694 -4.63211575 81.05187336 -4.63308525 80.33425331 C-4.63674576 78.15186607 -4.65346588 75.96993462 -4.67384338 73.78764343 C-4.72926644 67.5822297 -4.7598491 61.37674685 -4.78442383 55.17114258 C-4.80036098 51.37558802 -4.83065175 47.58035232 -4.86918831 43.78496361 C-4.88079288 42.3422098 -4.88676826 40.89939876 -4.88686943 39.45659828 C-4.72017244 29.05771572 -4.72017244 29.05771572 -8.328125 19.5546875 C-11.75197554 16.43294142 -15.21820469 15.92646722 -19.71484375 16.0625 C-25.77370889 17.20363155 -33.51918288 20.51308299 -37.328125 25.5546875 C-37.78986629 28.54901979 -37.78986629 28.54901979 -37.72875977 32.01391602 C-37.73573883 32.66463074 -37.7427179 33.31534546 -37.74990845 33.98577881 C-37.7698934 36.13518205 -37.76938501 38.28410586 -37.76953125 40.43359375 C-37.78130015 41.92668457 -37.79466318 43.4197636 -37.80955505 44.91282654 C-37.84576139 48.84279479 -37.86595017 52.77265858 -37.88110352 56.70275879 C-37.90592602 62.99717263 -37.94546853 69.29135567 -38.00300407 75.58555412 C-38.01937097 77.78703533 -38.023114 79.98829995 -38.02601624 82.18983459 C-38.03578936 83.53484475 -38.04605211 84.87985147 -38.05688477 86.22485352 C-38.06115982 87.40161148 -38.06543488 88.57836945 -38.06983948 89.79078674 C-38.328125 92.5546875 -38.328125 92.5546875 -40.328125 94.5546875 C-43.515625 94.8203125 -43.515625 94.8203125 -47.328125 94.8046875 C-48.58625 94.80984375 -49.844375 94.815 -51.140625 94.8203125 C-54.328125 94.5546875 -54.328125 94.5546875 -56.328125 92.5546875 C-56.52687365 89.67342909 -56.60079645 86.88826685 -56.58691406 84.00585938 C-56.5904187 83.12120499 -56.59392334 82.2365506 -56.59753418 81.3250885 C-56.60636066 78.39112579 -56.60049912 75.45740281 -56.59375 72.5234375 C-56.59509639 70.49084425 -56.5970367 68.45825132 -56.59954834 66.42565918 C-56.60250085 62.1618341 -56.59819789 57.89809271 -56.58886719 53.63427734 C-56.57747261 48.15948577 -56.5840314 42.68489027 -56.59601212 37.2101059 C-56.60322729 33.01176466 -56.60094436 28.81347018 -56.59575653 24.61512756 C-56.59441909 22.5960335 -56.59607105 20.57693524 -56.60071564 18.55784607 C-56.60577525 15.73962098 -56.59807862 12.92171672 -56.58691406 10.10351562 C-56.59096252 9.26293106 -56.59501099 8.4223465 -56.59918213 7.55628967 C-56.55665292 1.78321542 -56.55665292 1.78321542 -54.328125 -0.4453125 C-51.140625 -0.7109375 -51.140625 -0.7109375 -47.328125 -0.6953125 C-46.07 -0.70046875 -44.811875 -0.705625 -43.515625 -0.7109375 C-40.328125 -0.4453125 -40.328125 -0.4453125 -38.328125 1.5546875 C-38.328125 2.8746875 -38.328125 4.1946875 -38.328125 5.5546875 C-37.53148437 5.07257813 -36.73484375 4.59046875 -35.9140625 4.09375 C-34.85445313 3.46210938 -33.79484375 2.83046875 -32.703125 2.1796875 C-31.65898437 1.55320312 -30.61484375 0.92671875 -29.5390625 0.28125 C-19.45304235 -5.1421331 -10.29470039 -4.72062686 0 0 Z " fill="#01B1EA" transform="translate(335.328125,295.4453125)"/>
<path d="M0 0 C0.804375 -0.00128906 1.60875 -0.00257813 2.4375 -0.00390625 C3.283125 -0.00003906 4.12875 0.00382812 5 0.0078125 C6.2684375 0.00201172 6.2684375 0.00201172 7.5625 -0.00390625 C8.366875 -0.00261719 9.17125 -0.00132812 10 0 C10.7425 0.00112793 11.485 0.00225586 12.25 0.00341797 C14 0.1328125 14 0.1328125 15 1.1328125 C15.08816272 3.79395085 15.1127593 6.42651844 15.08984375 9.08740234 C15.08605209 9.89708151 15.08226044 10.70676067 15.07835388 11.54097557 C15.02359824 19.98360107 14.8082839 28.42052904 14.5625 36.859375 C14.51744096 38.47032064 14.4726051 40.08127254 14.42797852 41.69223022 C14.31181696 45.86448513 14.19269305 50.03664996 14.07287598 54.20880127 C13.95038214 58.49331567 13.83079501 62.77791119 13.7109375 67.0625 C13.47674634 75.4193517 13.2391448 83.77610109 13 92.1328125 C7.39 92.1328125 1.78 92.1328125 -4 92.1328125 C-5.0983773 35.98119437 -5.0983773 35.98119437 -5.125 14.6328125 C-5.12749756 13.92489563 -5.12999512 13.21697876 -5.13256836 12.48760986 C-5.13829978 10.54643587 -5.13584047 8.60524259 -5.1328125 6.6640625 C-5.13168457 5.60767578 -5.13055664 4.55128906 -5.12939453 3.46289062 C-4.91330164 -0.42841231 -3.4881767 0.00529888 0 0 Z " fill="#01B2EB" transform="translate(383,264.8671875)"/>
<path d="M0 0 C6.4040625 -0.0928125 6.4040625 -0.0928125 12.9375 -0.1875 C14.26515381 -0.21481201 15.59280762 -0.24212402 16.96069336 -0.27026367 C32.25017497 -0.37694248 32.25017497 -0.37694248 37.61303711 4.45263672 C42.7165313 10.37631929 42.52298838 15.44572341 42 23 C41.01667914 27.63327456 38.66258293 31.14546991 34.8371582 34.01147461 C27.71137113 37.84566888 18.7132444 37.25360776 10.875 37.125 C7.28625 37.08375 3.6975 37.0425 0 37 C0 24.79 0 12.58 0 0 Z " fill="#214F76" transform="translate(129,192)"/>
<path d="M0 0 C0.2335806 3.5405429 0.37479801 7.07910068 0.5 10.625 C0.60054687 12.12353516 0.60054687 12.12353516 0.703125 13.65234375 C0.89653884 20.95371613 0.89653884 20.95371613 -1.69995117 23.98388672 C-3.73828149 25.52862297 -5.7449952 26.79818768 -8 28 C-9.093125 28.61875 -10.18625 29.2375 -11.3125 29.875 C-17.4973626 31.76190723 -23.33153132 31.85772207 -29.5 29.875 C-33.2072328 27.0945754 -34.64885428 24.41900388 -35.31640625 19.8203125 C-35.52247722 15.87172675 -35.1751816 13.37956014 -33.5 9.75 C-24.40374887 -0.25587624 -12.74178053 -0.14070678 0 0 Z " fill="#1E4F79" transform="translate(240,343)"/>
<path d="M0 0 C4.16625 -0.0825 8.3325 -0.165 12.625 -0.25 C13.92775879 -0.28641602 15.23051758 -0.32283203 16.57275391 -0.36035156 C27.28882834 -0.46321526 27.28882834 -0.46321526 32 4 C33.97449669 7.94899337 33.43770498 12.69590104 33 17 C30.79203905 21.57947455 28.49364783 23.7448897 24 26 C21.22924805 26.34057617 21.22924805 26.34057617 18.26171875 26.29296875 C17.29967529 26.28547607 16.33763184 26.2779834 15.34643555 26.27026367 C14.13898682 26.24295166 12.93153809 26.21563965 11.6875 26.1875 C5.9021875 26.0946875 5.9021875 26.0946875 0 26 C0 17.42 0 8.84 0 0 Z " fill="#204E77" transform="translate(129,144)"/>
<path d="M0 0 C0.79792969 0.00386719 1.59585937 0.00773437 2.41796875 0.01171875 C3.21589844 0.00785156 4.01382812 0.00398438 4.8359375 0 C10.79136108 0.01011108 10.79136108 0.01011108 11.91796875 1.13671875 C12.01657006 2.5402061 12.04875812 3.94852352 12.05078125 5.35546875 C12.05271484 6.62970703 12.05271484 6.62970703 12.0546875 7.9296875 C12.05082031 8.82300781 12.04695313 9.71632813 12.04296875 10.63671875 C12.04876953 11.97669922 12.04876953 11.97669922 12.0546875 13.34375 C12.05339844 14.19324219 12.05210937 15.04273438 12.05078125 15.91796875 C12.04965332 16.70236328 12.04852539 17.48675781 12.04736328 18.29492188 C11.91796875 20.13671875 11.91796875 20.13671875 10.91796875 21.13671875 C8.25974218 21.26330097 5.63909451 21.32192089 2.98046875 21.32421875 C2.23861328 21.33646484 1.49675781 21.34871094 0.73242188 21.36132812 C-1.20716754 21.36660353 -3.14626835 21.25860777 -5.08203125 21.13671875 C-7.08203125 19.13671875 -7.08203125 19.13671875 -7.32495117 17.27319336 C-7.32084229 16.53593018 -7.3167334 15.79866699 -7.3125 15.0390625 C-7.31056641 14.23791016 -7.30863281 13.43675781 -7.30664062 12.61132812 C-7.29439453 11.77408203 -7.28214844 10.93683594 -7.26953125 10.07421875 C-7.26888672 9.23310547 -7.26824219 8.39199219 -7.26757812 7.52539062 C-7.21309118 0.01224633 -7.21309118 0.01224633 0 0 Z " fill="#01B2EB" transform="translate(385.08203125,368.86328125)"/>
</svg>
